<svg xmlns="http://www.w3.org/2000/svg" version="1.1" xmlns:xlink="http://www.w3.org/1999/xlink" xmlns:svgjs="http://svgjs.dev/svgjs" width="1500" height="1500" viewBox="0 0 1500 1500"><g transform="matrix(1,0,0,1,-1.9714912280702492,-1.9714912280701355)"><svg viewBox="0 0 342 342" data-background-color="#ffffff" preserveAspectRatio="xMidYMid meet" height="1500" width="1500" xmlns="http://www.w3.org/2000/svg" xmlns:xlink="http://www.w3.org/1999/xlink"><g id="tight-bounds" transform="matrix(1,0,0,1,0.4495000000000289,0.44950000000000045)"><svg viewBox="0 0 341.10059597516084 341.10059597516084" height="341.10059597516084" width="341.10059597516084"><g><svg></svg></g><g><svg viewBox="0 0 341.10059597516084 341.10059597516084" height="341.10059597516084" width="341.10059597516084"><g><path d="M0 170.55c0-94.192 76.358-170.55 170.55-170.55 94.192 0 170.55 76.358 170.551 170.55 0 94.192-76.358 170.55-170.551 170.551-94.192 0-170.55-76.358-170.55-170.551zM170.55 335.656c91.185 0 165.105-73.92 165.106-165.106 0-91.185-73.92-165.105-165.106-165.105-91.185 0-165.105 73.92-165.105 165.105 0 91.185 73.92 165.105 165.105 165.106z" data-fill-palette-color="tertiary" fill="#001f3f" stroke="transparent"></path><ellipse rx="163.7282860680772" ry="163.7282860680772" cx="170.55029798758042" cy="170.55029798758042" fill="#001f3f" stroke="transparent" stroke-width="0" fill-opacity="1" data-fill-palette-color="tertiary"></ellipse></g><g transform="matrix(1,0,0,1,64.59013611773746,74.77107737400186)"><svg viewBox="0 0 211.92032373968593 191.55844122715712" height="191.55844122715712" width="211.92032373968593"><g><svg viewBox="0 0 211.92032373968593 191.55844122715712" height="191.55844122715712" width="211.92032373968593"><g><svg viewBox="0 0 213.1584412271571 192.67759701066467" height="191.55844122715712" width="211.92032373968593"><g transform="matrix(1,0,0,1,0,99.60273989646366)"><svg viewBox="0 0 213.1584412271571 93.07485711420102" height="93.07485711420102" width="213.1584412271571"><g id="textblocktransform"><svg viewBox="0 0 213.1584412271571 93.07485711420102" height="93.07485711420102" width="213.1584412271571" id="textblock"><g><svg viewBox="0 0 213.1584412271571 60.73124743903896" height="60.73124743903896" width="213.1584412271571"><g transform="matrix(1,0,0,1,0,0)"><svg width="213.1584412271571" viewBox="3.78 -31.95 142.31 40.55" height="60.73124743903896" data-palette-color="#ffffff"><path d="M7.93-31.95L7.93 0 3.78 0 3.78-31.95 7.93-31.95ZM27.23-31.95L27.23 0 23.08 0 23.08-31.95 27.23-31.95ZM6.15-14.73L6.15-18.23 24.73-18.23 24.73-14.73 6.15-14.73ZM44.55 0.55L44.55 0.55Q38.97 0.55 36.15-2.18 33.32-4.9 33.32-9.98L33.32-9.98 33.32-14.33Q33.32-19.48 35.95-22.26 38.57-25.05 43.62-25.05L43.62-25.05Q47.02-25.05 49.3-23.79 51.57-22.53 52.72-20.2 53.87-17.88 53.87-14.65L53.87-14.65 53.87-13.75Q53.87-12.95 53.81-12.15 53.75-11.35 53.65-10.58L53.65-10.58 49.92-10.58Q49.97-11.78 49.98-12.85 50-13.93 50-14.83L50-14.83Q50-17.05 49.28-18.59 48.57-20.13 47.16-20.94 45.75-21.75 43.62-21.75L43.62-21.75Q40.47-21.75 38.9-19.93 37.32-18.1 37.32-14.7L37.32-14.7 37.32-12.38 37.35-11.88 37.35-9.55Q37.35-8.03 37.8-6.8 38.25-5.58 39.21-4.69 40.17-3.8 41.66-3.34 43.15-2.88 45.2-2.88L45.2-2.88Q47.57-2.88 49.62-3.5 51.67-4.13 53.47-5.2L53.47-5.2 53.1-1.7Q51.47-0.68 49.32-0.06 47.17 0.55 44.55 0.55ZM52.8-10.58L35.45-10.58 35.45-13.63 52.8-13.63 52.8-10.58ZM63.12-14.93L63.12-14.93 62.2-18.05 63.2-18.1Q63.99-21.2 65.94-22.99 67.89-24.78 71.12-24.78L71.12-24.78Q71.92-24.78 72.56-24.65 73.19-24.53 73.69-24.35L73.69-24.35 73.94-20.43Q73.32-20.63 72.56-20.75 71.8-20.88 70.87-20.88L70.87-20.88Q68.12-20.88 66.08-19.35 64.05-17.82 63.12-14.93ZM63.32 0L59.27 0 59.27-24.4 63.22-24.4 63.02-17.2 63.32-16.9 63.32 0ZM88.17 0.55L88.17 0.55Q82.59 0.55 79.77-2.18 76.94-4.9 76.94-9.98L76.94-9.98 76.94-14.33Q76.94-19.48 79.57-22.26 82.19-25.05 87.24-25.05L87.24-25.05Q90.64-25.05 92.92-23.79 95.19-22.53 96.34-20.2 97.49-17.88 97.49-14.65L97.49-14.65 97.49-13.75Q97.49-12.95 97.43-12.15 97.37-11.35 97.27-10.58L97.27-10.58 93.54-10.58Q93.59-11.78 93.61-12.85 93.62-13.93 93.62-14.83L93.62-14.83Q93.62-17.05 92.91-18.59 92.19-20.13 90.78-20.94 89.37-21.75 87.24-21.75L87.24-21.75Q84.09-21.75 82.52-19.93 80.94-18.1 80.94-14.7L80.94-14.7 80.94-12.38 80.97-11.88 80.97-9.55Q80.97-8.03 81.42-6.8 81.87-5.58 82.83-4.69 83.79-3.8 85.28-3.34 86.77-2.88 88.82-2.88L88.82-2.88Q91.19-2.88 93.24-3.5 95.29-4.13 97.09-5.2L97.09-5.2 96.72-1.7Q95.09-0.68 92.94-0.06 90.79 0.55 88.17 0.55ZM96.42-10.58L79.07-10.58 79.07-13.63 96.42-13.63 96.42-10.58ZM111.54-3.78L113.87-3.78 111.74-2.85 119.04-24.4 123.22-24.4 111.74 8.6 107.64 8.6 111.49-2.55 113.27-1 108.67-1 100.69-24.4 104.89-24.4 111.54-3.78ZM146.09 0L142.06 0 142.24-5.93 142.09-6.55 142.09-14.33 142.11-15.75Q142.11-18.73 140.6-20.15 139.09-21.58 135.81-21.58L135.81-21.58Q133.19-21.58 131-20.83 128.81-20.08 127.11-19.07L127.11-19.07 127.49-22.53Q128.44-23.1 129.75-23.66 131.06-24.23 132.75-24.6 134.44-24.98 136.46-24.98L136.46-24.98Q139.09-24.98 140.93-24.34 142.76-23.7 143.9-22.5 145.04-21.3 145.56-19.6 146.09-17.9 146.09-15.8L146.09-15.8 146.09 0ZM133.66 0.53L133.66 0.53Q130.04 0.53 128.1-1.24 126.16-3 126.16-6.28L126.16-6.28 126.16-7Q126.16-10.38 128.25-12.04 130.34-13.7 134.89-14.35L134.89-14.35 142.61-15.45 142.84-12.5 135.39-11.43Q132.59-11.03 131.39-10.06 130.19-9.1 130.19-7.23L130.19-7.23 130.19-6.83Q130.19-4.9 131.38-3.88 132.56-2.85 134.94-2.85L134.94-2.85Q137.04-2.85 138.54-3.58 140.04-4.3 140.96-5.53 141.89-6.75 142.21-8.25L142.21-8.25 142.84-5.5 142.06-5.5Q141.71-3.9 140.75-2.53 139.79-1.15 138.06-0.31 136.34 0.53 133.66 0.53Z" opacity="1" transform="matrix(1,0,0,1,0,0)" fill="#ffffff" class="wordmark-text-0" data-fill-palette-color="quaternary" id="text-0"></path></svg></g></svg></g><g transform="matrix(1,0,0,1,0,75.06843740945752)"><svg viewBox="0 0 213.1584412271571 18.006419704743504" height="18.006419704743504" width="213.1584412271571"><g transform="matrix(1,0,0,1,0,0)"><svg width="213.1584412271571" viewBox="2.69 -34.03 515.2399999999999 43.53" height="18.006419704743504" data-palette-color="#ffffff"><path d="M15.04-28.91L10.55-28.91 10.55-2.44 15.14-2.44 15.14 0 2.69 0 2.69-2.44 7.42-2.44 7.42-28.91 2.69-28.91 2.69-31.35 15.04-31.35 15.04-28.91ZM24.36-20.07L24.36-20.07 24.36 0 21.24 0 21.24-24.05 23.8-24.05 24.02-22.49Q26.41-23.61 28.02-24.01 29.64-24.41 31.49-24.41L31.49-24.41Q35.2-24.41 36.97-22.39 38.74-20.36 38.74-16.19L38.74-16.19 38.74 0 35.62 0 35.62-16.31Q35.62-19.29 34.68-20.57 33.74-21.85 31.32-21.85L31.32-21.85Q27.61-21.85 24.36-20.07ZM51.19 0L48.07 0 48.07-21.8 43.38-21.8 43.38-24.05 48.07-24.05Q48.07-26.81 48.32-28.55 48.58-30.3 49.27-31.57 49.97-32.84 51.2-33.4 52.44-33.96 54.39-34.03L54.39-34.03Q57.05-34.03 58.91-33.4L58.91-33.4 58.52-30.96Q58-31.1 56.86-31.29 55.71-31.47 55.07-31.47L55.07-31.47Q53.93-31.47 53.25-31.23 52.58-30.98 52.08-30.19 51.58-29.39 51.39-27.94 51.19-26.49 51.19-24.05L51.19-24.05 56.66-24.05 56.66-21.8 51.19-21.8 51.19 0ZM65.15-24.05L65.28-21.95Q66.72-22.92 68.93-23.63 71.14-24.34 72.99-24.41L72.99-24.41 72.99-21.8Q70.87-21.8 68.68-21.15 66.5-20.51 65.3-19.63L65.3-19.63 65.3 0 62.18 0 62.18-24.05 65.15-24.05ZM80.09-6.79L80.09-6.79Q80.09-2.25 85.37-2.25L85.37-2.25Q86.93-2.25 88.55-2.71 90.18-3.17 91.23-3.86L91.23-3.86 91.23-11.55 89.86-11.55Q88.69-11.55 87.71-11.49 86.73-11.43 85.54-11.28 84.34-11.13 83.44-10.79 82.53-10.45 81.74-9.95 80.95-9.45 80.52-8.64 80.09-7.84 80.09-6.79ZM79.16-20.58L78.55-23Q82.88-24.41 86.07-24.41L86.07-24.41Q87.88-24.41 89.32-23.91 90.76-23.41 91.9-22.35 93.03-21.29 93.65-19.45 94.28-17.6 94.28-15.06L94.28-15.06 94.28 0 92.03 0 91.54-1.61Q90.66-0.9 88.71-0.33 86.76 0.24 84.88 0.24L84.88 0.24Q81.36 0.24 79.26-1.59 77.16-3.42 77.16-6.93L77.16-6.93Q77.16-8.06 77.52-9.02 77.87-9.99 78.74-10.89 79.6-11.79 80.93-12.44 82.27-13.09 84.34-13.46 86.42-13.84 89.08-13.84L89.08-13.84 91.23-13.84 91.23-14.62Q91.2-18.63 89.82-20.24 88.44-21.85 85.93-21.85L85.93-21.85Q85.56-21.85 85.13-21.81 84.71-21.78 84.39-21.74 84.07-21.7 83.52-21.59 82.97-21.48 82.72-21.45 82.46-21.41 81.8-21.25 81.14-21.09 80.97-21.04 80.8-21 80.03-20.8 79.26-20.61 79.16-20.58L79.16-20.58ZM100.43-1.68L101.43-4.08Q102.65-3.39 104.59-2.87 106.53-2.34 108.31-2.34L108.31-2.34Q110.56-2.34 111.94-3.31 113.32-4.27 113.32-6.47L113.32-6.47Q113.32-8.18 112.54-9.02 111.76-9.86 110.12-10.38L110.12-10.38 106.46-11.52Q104.99-11.99 104.05-12.44 103.11-12.89 102.31-13.61 101.5-14.33 101.13-15.39 100.77-16.46 100.77-17.94L100.77-17.94Q100.77-21.22 103.01-22.81 105.26-24.41 108.68-24.41 112.1-24.41 115.17-23L115.17-23 114.25-20.65Q111.73-21.85 108.9-21.85L108.9-21.85Q106.63-21.85 105.19-20.89 103.75-19.92 103.75-17.82L103.75-17.82Q103.75-16.26 104.54-15.63 105.33-14.99 107.38-14.33L107.38-14.33 110.97-13.18Q112.95-12.55 114.06-11.8 115.17-11.06 115.77-9.8 116.37-8.54 116.37-6.62L116.37-6.62Q116.37-4.79 115.73-3.42 115.1-2.05 113.96-1.27 112.83-0.49 111.46-0.12 110.09 0.24 108.46 0.24L108.46 0.24Q104.41 0.24 100.43-1.68L100.43-1.68ZM129.75 0.24L129.75 0.24Q127.79 0.2 126.54-0.39 125.28-0.98 124.57-2.23 123.86-3.49 123.59-5.19 123.32-6.88 123.32-9.47L123.32-9.47 123.32-21.85 119.59-21.85 119.59-24.05 123.42-24.05 124.03-30.93 126.45-30.93 126.45-24.05 133.97-24.05 133.97-21.85 126.45-21.85 126.45-9.42Q126.45-7.08 126.71-5.62 126.96-4.15 127.56-3.45 128.16-2.76 128.82-2.55 129.48-2.34 130.58-2.34L130.58-2.34Q133.09-2.34 134.24-2.51L134.24-2.51 134.36 0Q132.41 0.24 129.75 0.24ZM142.88-24.05L143-21.95Q144.44-22.92 146.65-23.63 148.86-24.34 150.71-24.41L150.71-24.41 150.71-21.8Q148.59-21.8 146.41-21.15 144.22-20.51 143.02-19.63L143.02-19.63 143.02 0 139.9 0 139.9-24.05 142.88-24.05ZM169.73-3.98L169.73-3.98 169.73-24.05 172.86-24.05 172.86 0 170.29 0 170.07-1.56Q167.75-0.46 166.13-0.11 164.51 0.24 162.53 0.24L162.53 0.24Q158.82 0.24 157.08-1.71 155.35-3.66 155.35-7.84L155.35-7.84 155.35-24.05 158.48-24.05 158.48-7.71Q158.48-4.79 159.44-3.56 160.4-2.34 162.85-2.34L162.85-2.34Q164.07-2.34 164.84-2.4 165.61-2.47 166.98-2.84 168.36-3.22 169.73-3.98ZM194.61-4.15L194.61-4.15 195.78-1.93Q192.8 0.24 188.67 0.24L188.67 0.24Q184.4 0.24 181.67-2.95 178.93-6.15 178.93-12.08L178.93-12.08Q178.93-24.41 188.41-24.41L188.41-24.41Q191.73-24.41 194.83-22.95L194.83-22.95 194.83-16.65 192.34-16.41 192.34-21.29Q190.72-21.92 188.36-21.92L188.36-21.92Q186.55-21.92 185.29-21.22 184.04-20.51 183.34-19.14 182.64-17.77 182.35-16.05 182.06-14.33 182.06-12.04L182.06-12.04Q182.06-7.37 183.95-4.83 185.84-2.29 189.02-2.29L189.02-2.29Q191.87-2.29 194.61-4.15ZM208.91 0.24L208.91 0.24Q206.96 0.2 205.7-0.39 204.44-0.98 203.73-2.23 203.03-3.49 202.76-5.19 202.49-6.88 202.49-9.47L202.49-9.47 202.49-21.85 198.75-21.85 198.75-24.05 202.59-24.05 203.2-30.93 205.61-30.93 205.61-24.05 213.13-24.05 213.13-21.85 205.61-21.85 205.61-9.42Q205.61-7.08 205.87-5.62 206.13-4.15 206.73-3.45 207.32-2.76 207.98-2.55 208.64-2.34 209.74-2.34L209.74-2.34Q212.26-2.34 213.4-2.51L213.4-2.51 213.52 0Q211.57 0.24 208.91 0.24ZM233-3.98L233-3.98 233-24.05 236.13-24.05 236.13 0 233.57 0 233.35-1.56Q231.03-0.46 229.4-0.11 227.78 0.24 225.8 0.24L225.8 0.24Q222.09 0.24 220.36-1.71 218.62-3.66 218.62-7.84L218.62-7.84 218.62-24.05 221.75-24.05 221.75-7.71Q221.75-4.79 222.71-3.56 223.68-2.34 226.12-2.34L226.12-2.34Q227.34-2.34 228.11-2.4 228.88-2.47 230.26-2.84 231.64-3.22 233-3.98ZM246.11-24.05L246.23-21.95Q247.68-22.92 249.88-23.63 252.09-24.34 253.95-24.41L253.95-24.41 253.95-21.8Q251.83-21.8 249.64-21.15 247.46-20.51 246.26-19.63L246.26-19.63 246.26 0 243.13 0 243.13-24.05 246.11-24.05ZM267.86-21.85L267.86-21.85Q264.79-21.85 263.15-19.71 261.52-17.58 261.22-13.65L261.22-13.65 273.6-13.65 273.6-14.87Q273.6-18.07 272.05-19.96 270.5-21.85 267.86-21.85ZM268.28-2.34L268.28-2.34Q272.04-2.34 275.11-4.3L275.11-4.3 276.07-1.83Q274.41-0.81 272.36-0.28 270.3 0.24 268.45 0.24L268.45 0.24Q263.52 0.24 260.81-2.73 258.1-5.71 258.1-12.11L258.1-12.11Q258.1-18.24 260.73-21.33 263.37-24.41 267.84-24.41L267.84-24.41Q271.87-24.41 274.19-21.78 276.51-19.14 276.51-14.75L276.51-14.75Q276.51-13.75 276.31-11.45L276.31-11.45 261.22-11.45Q261.25-9.28 261.66-7.63 262.08-5.98 262.71-4.99 263.35-4 264.29-3.39 265.23-2.78 266.18-2.56 267.13-2.34 268.28-2.34ZM301.11-6.79L301.11-6.79Q301.11-2.25 306.38-2.25L306.38-2.25Q307.95-2.25 309.57-2.71 311.19-3.17 312.24-3.86L312.24-3.86 312.24-11.55 310.88-11.55Q309.7-11.55 308.73-11.49 307.75-11.43 306.55-11.28 305.36-11.13 304.45-10.79 303.55-10.45 302.76-9.95 301.96-9.45 301.54-8.64 301.11-7.84 301.11-6.79ZM300.18-20.58L299.57-23Q303.89-24.41 307.09-24.41L307.09-24.41Q308.9-24.41 310.34-23.91 311.78-23.41 312.91-22.35 314.05-21.29 314.67-19.45 315.29-17.6 315.29-15.06L315.29-15.06 315.29 0 313.05 0 312.56-1.61Q311.68-0.9 309.73-0.33 307.78 0.24 305.9 0.24L305.9 0.24Q302.38 0.24 300.28-1.59 298.18-3.42 298.18-6.93L298.18-6.93Q298.18-8.06 298.53-9.02 298.89-9.99 299.75-10.89 300.62-11.79 301.95-12.44 303.28-13.09 305.36-13.46 307.43-13.84 310.09-13.84L310.09-13.84 312.24-13.84 312.24-14.62Q312.22-18.63 310.84-20.24 309.46-21.85 306.94-21.85L306.94-21.85Q306.58-21.85 306.15-21.81 305.72-21.78 305.41-21.74 305.09-21.7 304.54-21.59 303.99-21.48 303.73-21.45 303.48-21.41 302.82-21.25 302.16-21.09 301.99-21.04 301.82-21 301.05-20.8 300.28-20.61 300.18-20.58L300.18-20.58ZM321.44-1.68L322.45-4.08Q323.67-3.39 325.61-2.87 327.55-2.34 329.33-2.34L329.33-2.34Q331.58-2.34 332.96-3.31 334.34-4.27 334.34-6.47L334.34-6.47Q334.34-8.18 333.55-9.02 332.77-9.86 331.14-10.38L331.14-10.38 327.47-11.52Q326.01-11.99 325.07-12.44 324.13-12.89 323.32-13.61 322.52-14.33 322.15-15.39 321.79-16.46 321.79-17.94L321.79-17.94Q321.79-21.22 324.03-22.81 326.28-24.41 329.7-24.41 333.11-24.41 336.19-23L336.19-23 335.26-20.65Q332.75-21.85 329.92-21.85L329.92-21.85Q327.65-21.85 326.21-20.89 324.76-19.92 324.76-17.82L324.76-17.82Q324.76-16.26 325.56-15.63 326.35-14.99 328.4-14.33L328.4-14.33 331.99-13.18Q333.97-12.55 335.08-11.8 336.19-11.06 336.79-9.8 337.39-8.54 337.39-6.62L337.39-6.62Q337.39-4.79 336.75-3.42 336.12-2.05 334.98-1.27 333.85-0.49 332.48-0.12 331.11 0.24 329.48 0.24L329.48 0.24Q325.42 0.24 321.44-1.68L321.44-1.68ZM362.31-1.05L362.31-1.05 362.31 9.5 359.18 9.5 359.18-24.05 361.75-24.05 362.04-22.36Q365.19-24.41 368.95-24.41L368.95-24.41Q372.78-24.41 374.97-21.39 377.15-18.36 377.15-12.04L377.15-12.04Q377.15-5.49 374.93-2.62 372.71 0.24 368.22 0.24L368.22 0.24Q364.92 0.24 362.31-1.05ZM362.31-19.75L362.31-19.75 362.31-3.34Q364.46-2.34 367.07-2.34L367.07-2.34 367.78-2.34Q371.1-2.34 372.56-4.58 374.03-6.81 374.03-11.99L374.03-11.99Q374.03-17.07 372.72-19.46 371.41-21.85 368.56-21.85L368.56-21.85Q365.95-21.85 362.31-19.75ZM385.33-6.79L385.33-6.79Q385.33-2.25 390.6-2.25L390.6-2.25Q392.16-2.25 393.79-2.71 395.41-3.17 396.46-3.86L396.46-3.86 396.46-11.55 395.09-11.55Q393.92-11.55 392.95-11.49 391.97-11.43 390.77-11.28 389.58-11.13 388.67-10.79 387.77-10.45 386.98-9.95 386.18-9.45 385.76-8.64 385.33-7.84 385.33-6.79ZM384.4-20.58L383.79-23Q388.11-24.41 391.31-24.41L391.31-24.41Q393.12-24.41 394.56-23.91 396-23.41 397.13-22.35 398.27-21.29 398.89-19.45 399.51-17.6 399.51-15.06L399.51-15.06 399.51 0 397.27 0 396.78-1.61Q395.9-0.9 393.95-0.33 391.99 0.24 390.11 0.24L390.11 0.24Q386.6 0.24 384.5-1.59 382.4-3.42 382.4-6.93L382.4-6.93Q382.4-8.06 382.75-9.02 383.11-9.99 383.97-10.89 384.84-11.79 386.17-12.44 387.5-13.09 389.58-13.46 391.65-13.84 394.31-13.84L394.31-13.84 396.46-13.84 396.46-14.62Q396.44-18.63 395.06-20.24 393.68-21.85 391.16-21.85L391.16-21.85Q390.8-21.85 390.37-21.81 389.94-21.78 389.63-21.74 389.31-21.7 388.76-21.59 388.21-21.48 387.95-21.45 387.7-21.41 387.04-21.25 386.38-21.09 386.21-21.04 386.04-21 385.27-20.8 384.5-20.61 384.4-20.58L384.4-20.58ZM421.31-4.15L421.31-4.15 422.48-1.93Q419.51 0.24 415.38 0.24L415.38 0.24Q411.11 0.24 408.37-2.95 405.64-6.15 405.64-12.08L405.64-12.08Q405.64-24.41 415.11-24.41L415.11-24.41Q418.43-24.41 421.53-22.95L421.53-22.95 421.53-16.65 419.04-16.41 419.04-21.29Q417.43-21.92 415.06-21.92L415.06-21.92Q413.26-21.92 412-21.22 410.74-20.51 410.05-19.14 409.35-17.77 409.06-16.05 408.76-14.33 408.76-12.04L408.76-12.04Q408.76-7.37 410.66-4.83 412.55-2.29 415.72-2.29L415.72-2.29Q418.58-2.29 421.31-4.15ZM430.64 0L427.51 0 427.51-33.15 430.64-33.15 430.64-12.06Q438.08-20.02 441.65-24.05L441.65-24.05 445.38-24.05 435.23-12.74 446.26 0 442.65 0Q440.55-2.34 438.27-4.96 435.98-7.57 434.74-9.03L434.74-9.03 433.49-10.47 432.86-11.18 430.64-9.2 430.64 0ZM452.56-6.79L452.56-6.79Q452.56-2.25 457.83-2.25L457.83-2.25Q459.39-2.25 461.02-2.71 462.64-3.17 463.69-3.86L463.69-3.86 463.69-11.55 462.32-11.55Q461.15-11.55 460.17-11.49 459.2-11.43 458-11.28 456.81-11.13 455.9-10.79 455-10.45 454.21-9.95 453.41-9.45 452.98-8.64 452.56-7.84 452.56-6.79ZM451.63-20.58L451.02-23Q455.34-24.41 458.54-24.41L458.54-24.41Q460.35-24.41 461.79-23.91 463.23-23.41 464.36-22.35 465.5-21.29 466.12-19.45 466.74-17.6 466.74-15.06L466.74-15.06 466.74 0 464.5 0 464.01-1.61Q463.13-0.9 461.18-0.33 459.22 0.24 457.34 0.24L457.34 0.24Q453.83 0.24 451.73-1.59 449.63-3.42 449.63-6.93L449.63-6.93Q449.63-8.06 449.98-9.02 450.34-9.99 451.2-10.89 452.07-11.79 453.4-12.44 454.73-13.09 456.81-13.46 458.88-13.84 461.54-13.84L461.54-13.84 463.69-13.84 463.69-14.62Q463.67-18.63 462.29-20.24 460.91-21.85 458.39-21.85L458.39-21.85Q458.03-21.85 457.6-21.81 457.17-21.78 456.85-21.74 456.54-21.7 455.99-21.59 455.44-21.48 455.18-21.45 454.93-21.41 454.27-21.25 453.61-21.09 453.44-21.04 453.27-21 452.5-20.8 451.73-20.61 451.63-20.58L451.63-20.58ZM482.95 5.74L482.95 5.74Q486.91 5.74 488.88 4.39 490.86 3.05 490.86 1.2L490.86 1.2Q490.86-0.2 490.14-0.89 489.42-1.59 487.27-1.59L487.27-1.59 478.02-1.59Q476.24 0.1 476.24 1.93L476.24 1.93Q476.24 2.42 476.3 2.77 476.36 3.13 476.55 3.61 476.75 4.1 477.2 4.44 477.65 4.79 478.35 5.1 479.04 5.42 480.23 5.58 481.41 5.74 482.95 5.74ZM488.35-23.85L488.35-23.85 495.35-23.85 495.35-21.56 489.91-21.56Q491.18-20.61 491.86-19.21 492.55-17.82 492.55-16.46L492.55-16.46Q492.55-13.13 490.05-11.17 487.56-9.2 483.51-9.2L483.51-9.2Q480.73-9.2 478.48-10.11L478.48-10.11Q476.87-7.5 476.87-6.2L476.87-6.2Q476.87-5.62 477.07-5.07 477.26-4.52 477.46-4.27L477.46-4.27 477.63-4.03 486.88-4.03Q490.74-4.03 492.26-2.83 493.79-1.64 493.79 1L493.79 1Q493.79 2 493.48 2.95 493.18 3.91 492.4 4.9 491.62 5.88 490.42 6.63 489.22 7.37 487.26 7.84 485.29 8.3 482.8 8.3L482.8 8.3Q480.48 8.3 478.69 7.87 476.9 7.45 475.87 6.82 474.84 6.2 474.2 5.35 473.55 4.49 473.33 3.76 473.11 3.03 473.11 2.27L473.11 2.27Q473.11 0.9 474.03-0.46 474.94-1.83 475.82-2.34L475.82-2.34Q475.02-2.88 474.55-3.86 474.09-4.83 474.09-5.79L474.09-5.79Q474.09-7.08 474.65-8.23 475.21-9.38 476.6-11.35L476.6-11.35Q473.89-13.62 473.89-16.8L473.89-16.8Q473.89-20.63 476.54-22.52 479.19-24.41 483.39-24.41L483.39-24.41Q484.49-24.41 485.95-24.13 487.42-23.85 488.35-23.85ZM483.54-22.09L483.54-22.09Q480.17-22.09 478.59-20.65 477.02-19.21 477.02-16.82L477.02-16.82Q477.02-14.28 478.68-12.94 480.34-11.6 483.29-11.6L483.29-11.6Q486.42-11.6 488.05-12.84 489.69-14.09 489.69-16.55L489.69-16.55Q489.69-18.95 488.13-20.52 486.56-22.09 483.54-22.09ZM509.29-21.85L509.29-21.85Q506.21-21.85 504.58-19.71 502.94-17.58 502.65-13.65L502.65-13.65 515.03-13.65 515.03-14.87Q515.03-18.07 513.48-19.96 511.93-21.85 509.29-21.85ZM509.71-2.34L509.71-2.34Q513.47-2.34 516.54-4.3L516.54-4.3 517.49-1.83Q515.83-0.81 513.78-0.28 511.73 0.24 509.88 0.24L509.88 0.24Q504.94 0.24 502.23-2.73 499.52-5.71 499.52-12.11L499.52-12.11Q499.52-18.24 502.16-21.33 504.8-24.41 509.27-24.41L509.27-24.41Q513.29-24.41 515.61-21.78 517.93-19.14 517.93-14.75L517.93-14.75Q517.93-13.75 517.74-11.45L517.74-11.45 502.65-11.45Q502.67-9.28 503.09-7.63 503.5-5.98 504.14-4.99 504.77-4 505.71-3.39 506.65-2.78 507.61-2.56 508.56-2.34 509.71-2.34Z" opacity="1" transform="matrix(1,0,0,1,0,0)" fill="#ffffff" class="slogan-text-1" data-fill-palette-color="quaternary" id="text-1"></path></svg></g></svg></g></svg></g></svg></g><g transform="matrix(1,0,0,1,40.713262274387006,0)"><svg viewBox="0 0 131.7319166783831 85.2655499260451" height="85.2655499260451" width="131.7319166783831"><g><svg xmlns="http://www.w3.org/2000/svg" xmlns:xlink="http://www.w3.org/1999/xlink" version="1.1" x="0" y="0" viewBox="3.062 7.626 25.875000424475573 16.747999999999998" enable-background="new 0 0 32 32" xml:space="preserve" height="85.2655499260451" width="131.7319166783831" class="icon-icon-0" data-fill-palette-color="quaternary" id="icon-0"><path d="M24.846 14.466A6.25 6.25 0 0 0 18.625 7.626 6.245 6.245 0 0 0 12.778 11.685 3.2 3.2 0 0 0 10.406 10.626 3.22 3.22 0 0 0 7.187 13.845C7.187 14.055 7.209 14.259 7.249 14.458 4.877 14.849 3.062 16.894 3.062 19.374 3.062 22.138 5.3 24.374 8.062 24.374H23.937C26.699 24.374 28.937 22.138 28.937 19.374 28.938 16.925 27.172 14.896 24.846 14.466" fill="#ffffff" data-fill-palette-color="quaternary"></path></svg></g></svg></g><g></g></svg></g></svg></g></svg></g></svg></g><defs></defs></svg><rect width="341.10059597516084" height="341.10059597516084" fill="none" stroke="none" visibility="hidden"></rect></g></svg></g></svg>